<?xml version="1.0" encoding="iso-8859-1"?>
<!-- Generator: Adobe Illustrator 19.0.0, SVG Export Plug-In . SVG Version: 6.00 Build 0)  -->
<svg version="1.1" id="Capa_1" xmlns="http://www.w3.org/2000/svg" xmlns:xlink="http://www.w3.org/1999/xlink" x="0px" y="0px"
	 viewBox="0 0 512 512" style="enable-background:new 0 0 512 512;" xml:space="preserve">
<g>
	<path style="fill:#57555C;" d="M135,121H75c-8.291,0-15-6.709-15-15V76c0-24.814,20.186-45,45-45s45,20.186,45,45v30
		C150,114.291,143.291,121,135,121z"/>
	<path style="fill:#57555C;" d="M446.3,91l-16.8,30H276.799L247.7,91l25.8-51.601C276.2,34.3,281.3,31,287,31h120
		c5.7,0,10.8,3.3,13.5,8.399L446.3,91z"/>
</g>
<g>
	<path style="fill:#3C3A41;" d="M429.5,121H347V31h60c5.7,0,10.8,3.3,13.5,8.399L446.3,91L429.5,121z"/>
	<path style="fill:#3C3A41;" d="M467,391H45c-8.401,0-15,6.599-15,15v30c0,24.899,20.099,45,45,45h362c24.901,0,45-20.101,45-45v-30
		C482,397.599,475.401,391,467,391z"/>
</g>
<path style="fill:#2B292C;" d="M482,406v30c0,24.899-20.099,45-45,45h-90v-90h120C475.401,391,482,397.599,482,406z"/>
<path style="fill:#57555C;" d="M512,256v120c0,24.899-20.099,45-45,45H45c-24.901,0-45-20.101-45-45v-15l15-30v-75l37.5-30h426.799
	L512,256z"/>
<path style="fill:#3C3A41;" d="M512,256v120c0,24.899-20.099,45-45,45H347V226h132.299L512,256z"/>
<path style="fill:#FEA832;" d="M512,136v120H15v-75L0,151v-15c0-24.901,20.099-45,45-45h422C491.901,91,512,111.099,512,136z"/>
<path style="fill:#FE9923;" d="M512,136v120H347V91h120C491.901,91,512,111.099,512,136z"/>
<path style="fill:#CAE8F9;" d="M347,151c-57.9,0-105,47.1-105,105s47.1,105,105,105s105-47.1,105-105S404.9,151,347,151z"/>
<path style="fill:#17ACE8;" d="M347,181c-41.4,0-75,33.6-75,75s33.6,75,75,75s75-33.6,75-75S388.4,181,347,181z"/>
<path style="fill:#2B292C;" d="M120,316V196c0-24.814-20.186-45-45-45H0v210h75C99.814,361,120,340.814,120,316z"/>
<path style="fill:#B7E0F6;" d="M452,256c0,57.9-47.1,105-105,105V151C404.9,151,452,198.1,452,256z"/>
<path style="fill:#1689FC;" d="M347,331V181c41.4,0,75,33.6,75,75S388.4,331,347,331z"/>
<path style="fill:#57555C;" d="M347,211c-24.901,0-45,20.099-45,45c0,24.899,20.099,45,45,45s45-20.101,45-45
	C392,231.099,371.901,211,347,211z"/>
<path style="fill:#3C3A41;" d="M392,256c0,24.899-20.099,45-45,45v-90C371.901,211,392,231.099,392,256z"/>
<path style="fill:#E1E4FB;" d="M347,211c-8.401,0-15,6.599-15,15c0,8.399,6.599,15,15,15s15-6.601,15-15
	C362,217.599,355.401,211,347,211z"/>
<path style="fill:#C5C9F7;" d="M362,226c0,8.399-6.599,15-15,15v-30C355.401,211,362,217.599,362,226z"/>
<g>
</g>
<g>
</g>
<g>
</g>
<g>
</g>
<g>
</g>
<g>
</g>
<g>
</g>
<g>
</g>
<g>
</g>
<g>
</g>
<g>
</g>
<g>
</g>
<g>
</g>
<g>
</g>
<g>
</g>
</svg>
