<?xml version="1.0" encoding="iso-8859-1"?>
<!-- Generator: Adobe Illustrator 19.0.0, SVG Export Plug-In . SVG Version: 6.00 Build 0)  -->
<svg version="1.1" id="Capa_1" xmlns="http://www.w3.org/2000/svg" xmlns:xlink="http://www.w3.org/1999/xlink" x="0px" y="0px"
	 viewBox="0 0 512.001 512.001" style="enable-background:new 0 0 512.001 512.001;" xml:space="preserve">
<path style="fill:#BF6015;" d="M510.5,421.976l-58.491,14.998l49.494,14.998c-16.798,35.395-52.792,59.991-94.487,59.991H105.06
	c-8.4,0-14.998-6.6-14.998-14.998V316.992c0-8.4,6.598-14.998,14.998-14.998h83.988l56.493,25.495l-14.498-25.495h175.974
	c57.892,0,104.985,47.093,104.985,104.985C511.999,412.077,511.098,417.176,510.5,421.976z"/>
<path style="fill:#994C10;" d="M510.5,421.976l-58.491,14.998l49.494,14.998c-16.798,35.395-52.792,59.991-94.487,59.991H105.06
	c-8.4,0-14.998-6.6-14.998-14.998v-89.987H512C511.999,412.077,511.098,417.176,510.5,421.976z"/>
<path style="fill:#713708;" d="M286.032,451.972h-90.987c-8.29,0-14.998-6.708-14.998-14.998s6.708-14.998,14.998-14.998h90.987
	c8.29,0,14.998,6.708,14.998,14.998S294.322,451.972,286.032,451.972z"/>
<path style="fill:#994C10;" d="M286.032,391.981h90.987c8.4,0,14.998-6.6,14.998-14.998c0-8.4-6.598-14.998-14.998-14.998h-84.687
	l-61.291-59.991h-41.995l86.488,85.486C278.233,390.481,282.133,391.981,286.032,391.981z"/>
<path style="fill:#713708;" d="M407.014,421.976c-8.29,0-14.998,6.708-14.998,14.998s6.708,14.998,14.998,14.998h94.457
	c4.47-9.341,7.473-19.386,9.011-29.996H407.014z"/>
<path style="fill:#FEDBAB;" d="M105.059,301.994c-57.892,0-104.985,47.093-104.985,104.985s47.093,104.985,104.985,104.985
	s104.985-47.093,104.985-104.985S162.95,301.994,105.059,301.994z"/>
<path style="fill:#FEC478;" d="M210.043,406.978c0,57.892-47.093,104.985-104.985,104.985S0.074,464.87,0.074,406.978
	L210.043,406.978L210.043,406.978z"/>
<g>
	<path style="fill:#994C10;" d="M105.059,361.985c-24.897,0-44.993,20.096-44.993,44.993c0,24.895,20.096,44.993,44.993,44.993
		s44.993-20.098,44.993-44.993C150.052,382.081,129.956,361.985,105.059,361.985z"/>
	<path style="fill:#994C10;" d="M150.052,406.978c0,24.895-20.096,44.993-44.993,44.993s-44.993-20.098-44.993-44.993H150.052z"/>
</g>
<path style="fill:#FEDB41;" d="M437.01,120.021c-8.4,0-14.998,6.598-14.998,14.998v29.996c0,8.398-6.598,14.998-14.998,14.998
	c-8.4,0-14.998-6.6-14.998-14.998v-59.991c0-57.892-48.093-104.985-105.984-104.985c-6.3,0-11.698,3.899-14.097,9.599
	c-2.1,5.999-0.601,12.297,4.198,16.498c0,0.3,24.897,23.098,24.897,48.893c0,4.5-0.601,8.999-2.401,14.397
	c-5.999,17.698-21.296,21.898-32.694,20.098c-3.301-0.601-6.6-1.8-9.9-3.599c-8.1-4.199-14.998-12.299-14.998-25.497V47.431
	c0-4.8-2.8-9.299-6.399-12.599c-2.701-2.699-8.698-5.399-12.597-4.798c-40.195,1.5-71.99,34.496-71.99,74.989v29.996
	c0,8.398-6.598,14.998-14.998,14.998s-14.998-6.6-14.998-14.998v-29.996c0-57.892-47.093-104.985-104.985-104.985
	c-6.3,0-11.698,3.899-14.097,9.599c-2.1,5.999-0.601,12.297,4.198,16.498c0,0.3,24.897,23.098,24.897,48.893
	c0,8.698-2.999,17.996-8.4,27.896C6.375,129.019-0.826,155.715,0.075,182.111c2.1,65.089,59.39,119.882,127.481,119.882h279.459
	C464.907,301.994,512,252.901,512,195.01C511.999,153.615,478.404,120.021,437.01,120.021z"/>
<path style="fill:#FCBF29;" d="M511.999,195.01c0,57.892-47.093,106.984-104.985,106.984H256.037V105.923
	c3.299,1.8,6.598,2.999,9.9,3.599c11.398,1.8,26.695-2.401,32.694-20.098c1.8-5.399,2.401-9.898,2.401-14.397
	c0-25.796-24.897-48.593-24.897-48.893c-4.798-4.199-6.298-10.497-4.198-16.498c2.399-5.699,7.797-9.599,14.097-9.599
	c57.892,0,105.984,47.093,105.984,104.985v59.991c0,8.398,6.598,14.998,14.998,14.998c8.4,0,14.998-6.6,14.998-14.998v-29.996
	c0-8.4,6.598-14.998,14.998-14.998C478.404,120.021,511.999,153.615,511.999,195.01z"/>
<g>
</g>
<g>
</g>
<g>
</g>
<g>
</g>
<g>
</g>
<g>
</g>
<g>
</g>
<g>
</g>
<g>
</g>
<g>
</g>
<g>
</g>
<g>
</g>
<g>
</g>
<g>
</g>
<g>
</g>
</svg>
