<?xml version="1.0" encoding="iso-8859-1"?>
<!-- Generator: Adobe Illustrator 19.0.0, SVG Export Plug-In . SVG Version: 6.00 Build 0)  -->
<svg version="1.1" id="Capa_1" xmlns="http://www.w3.org/2000/svg" xmlns:xlink="http://www.w3.org/1999/xlink" x="0px" y="0px"
	 viewBox="0 0 512 512" style="enable-background:new 0 0 512 512;" xml:space="preserve">
<path style="fill:#57555C;" d="M136.003,60.005c-3.838,0-7.676-1.465-10.605-4.395L95.399,25.611
	c-5.859-5.859-5.859-15.352,0-21.211s15.352-5.859,21.211,0L146.609,34.4c5.859,5.859,5.859,15.352,0,21.21
	C143.679,58.54,139.841,60.005,136.003,60.005z"/>
<g>
	<path style="fill:#3C3A41;" d="M376.997,60.005c-3.838,0-7.676-1.465-10.605-4.395c-5.859-5.859-5.859-15.352,0-21.21L396.392,4.4
		c5.859-5.859,15.352-5.859,21.211,0c5.859,5.859,5.859,15.352,0,21.211L387.603,55.61C384.673,58.54,380.835,60.005,376.997,60.005
		z"/>
	<path style="fill:#3C3A41;" d="M421.996,160.003V256c0,8.401-6.599,15-15,15c-8.401,0-15-6.599-15-15v-95.998
		c0-8.399,6.599-15,15-15C415.397,145.003,421.996,151.604,421.996,160.003z"/>
</g>
<path style="fill:#2B292C;" d="M406.997,271V145.003c8.401,0,15,6.601,15,15V256C421.996,264.401,415.397,271,406.997,271z"/>
<path style="fill:#57555C;" d="M511.994,286v74.998l-29.999,29.999H331.998l-29.999-29.999V286c0-24.9,20.099-44.999,44.999-44.999
	h119.997C491.895,241.001,511.994,261.099,511.994,286z"/>
<path style="fill:#3C3A41;" d="M511.994,286v74.998l-29.999,29.999h-74.998V241.001h59.999
	C491.895,241.001,511.994,261.099,511.994,286z"/>
<path style="fill:#CAE8F9;" d="M481.995,286v104.998H331.998V286c0-8.401,6.599-15,15-15h119.997
	C475.396,271,481.995,277.599,481.995,286z"/>
<path style="fill:#B7E0F6;" d="M481.995,286v104.998h-74.998V271h59.999C475.396,271,481.995,277.599,481.995,286z"/>
<rect x="362.002" y="241.005" style="fill:#57555C;" width="29.999" height="149.996"/>
<rect x="422" y="241.005" style="fill:#3C3A41;" width="29.999" height="149.996"/>
<path style="fill:#FD3C65;" d="M511.994,360.998v44.999c0,24.9-20.099,44.999-44.999,44.999H346.998
	c-24.9,0-44.999-20.099-44.999-44.999v-44.999H511.994z"/>
<path style="fill:#FD003A;" d="M511.994,360.998v44.999c0,24.9-20.099,44.999-44.999,44.999h-59.999v-89.998H511.994z"/>
<path style="fill:#3C3A41;" d="M121.003,160.003V256c0,8.401-6.599,15-15,15s-15-6.599-15-15v-95.998c0-8.399,6.599-15,15-15
	S121.003,151.604,121.003,160.003z"/>
<path style="fill:#2B292C;" d="M106.004,271V145.003c8.401,0,15,6.601,15,15V256C121.003,264.401,114.405,271,106.004,271z"/>
<path style="fill:#57555C;" d="M211.001,286v74.998l-29.999,29.999H30.006L0.006,360.998V286c0-24.9,20.099-44.999,44.999-44.999
	h120.997C190.902,241.001,211.001,261.099,211.001,286z"/>
<path style="fill:#3C3A41;" d="M211.001,286v74.998l-29.999,29.999h-74.998V241.001h59.999
	C190.902,241.001,211.001,261.099,211.001,286z"/>
<path style="fill:#CAE8F9;" d="M181.002,286v104.998H30.006V286c0-8.401,6.599-15,15-15h120.997
	C174.403,271,181.002,277.599,181.002,286z"/>
<path style="fill:#B7E0F6;" d="M181.002,286v104.998h-74.998V271h59.999C174.403,271,181.002,277.599,181.002,286z"/>
<path style="fill:#57555C;" d="M15.006,211.001c-5.947,0-11.587-3.56-13.931-9.434c-3.076-7.69,0.674-16.421,8.364-19.497
	l123.136-48.852c7.632-3.091,16.421,0.659,19.497,8.364c3.076,7.69-0.674,16.421-8.364,19.497L20.572,209.932
	C18.756,210.664,16.866,211.001,15.006,211.001z"/>
<path style="fill:#3C3A41;" d="M496.995,211.001c-1.86,0-3.75-0.337-5.566-1.069l-122.136-48.852
	c-7.69-3.076-11.44-11.807-8.364-19.497c3.076-7.705,11.851-11.455,19.497-8.364l122.136,48.852
	c7.69,3.076,11.44,11.807,8.364,19.497C508.581,207.441,502.941,211.001,496.995,211.001z"/>
<path style="fill:#57555C;" d="M271,106.004v390.991c0,8.401-6.599,15-15,15c-8.401,0-15-6.599-15-15V106.004
	c0-8.401,6.599-16,15-16C264.401,90.004,271,97.603,271,106.004z"/>
<path style="fill:#FD3C65;" d="M121.003,121.004v15c0,24.813,20.186,44.999,44.999,44.999s44.999-20.186,44.999-44.999v-15
	l-12.514-15h-56.235L121.003,121.004z"/>
<path style="fill:#FD003A;" d="M301.999,121.004v15c0,24.813,20.186,44.999,44.999,44.999s44.999-20.186,44.999-44.999v-15
	l-12.514-15h-56.235L301.999,121.004z"/>
<rect x="61.009" y="241.005" style="fill:#57555C;" width="29.999" height="149.996"/>
<rect x="121.007" y="241.005" style="fill:#3C3A41;" width="29.999" height="149.996"/>
<path style="fill:#FD3C65;" d="M211.001,360.998v44.999c0,24.9-20.099,44.999-44.999,44.999H45.005
	c-24.9,0-44.999-20.099-44.999-44.999v-44.999H211.001z"/>
<path style="fill:#FD003A;" d="M211.001,360.998v44.999c0,24.9-20.099,44.999-44.999,44.999h-59.999v-89.998H211.001z"/>
<path style="fill:#3C3A41;" d="M271,106.004v390.991c0,8.401-6.599,15-15,15V90.004C264.401,90.004,271,97.603,271,106.004z"/>
<path style="fill:#57555C;" d="M376.997,30.006H136.003c-8.401,0-15,6.599-15,15v75.998h270.994V45.005
	C391.997,36.605,385.398,30.006,376.997,30.006z"/>
<path style="fill:#3C3A41;" d="M391.997,45.005v75.998H256V30.006h120.997C385.398,30.006,391.997,36.605,391.997,45.005z"/>
<g>
</g>
<g>
</g>
<g>
</g>
<g>
</g>
<g>
</g>
<g>
</g>
<g>
</g>
<g>
</g>
<g>
</g>
<g>
</g>
<g>
</g>
<g>
</g>
<g>
</g>
<g>
</g>
<g>
</g>
</svg>
